# xmcd
#
# Track frame offsets: 
#        151
#        21490
#        40613
#        67705
#        88116
#        107391
#        126313
#        148414
#        162907
#        184768
#        205346
#        225923
#
# Disc length: 3289 seconds
#
# Revision: 1
# Processed by: cddbd v1.5.2PL0 Copyright (c) Steve Scherf et al.
# Submitted via: ExactAudioCopy v1.0b3
#
DISCID=9d0cd70c
DTITLE=Various Artist - Salsa en la Décima Avenida N.Y.
DYEAR=2000
DGENRE=Salsa
TTITLE0=Grupo Niche - Han Cogido la Cosa
TTITLE1=Tito Gómez - Llorará
TTITLE2=Tito Rojas - Por Mujeres como Tú
TTITLE3=Jerry Galante - Se Prendió el Rumbón
TTITLE4=Mimi Barra - Propiedad Privada
TTITLE5=Puerto Rican Power - Tu Cariñito
TTITLE6=Jimmy "El León" - Melao de Caña
TTITLE7=Alquimía - Tu Boquita
TTITLE8=Harvey - Llora un Corazón
TTITLE9=Ánthony Cruz - Nada, nada, nada
TTITLE10=Giro - Me Sospecho
TTITLE11=Willie Rosario - Quién Rayos Me Mandaría
EXTD=
EXTT0=
EXTT1=
EXTT2=
EXTT3=
EXTT4=
EXTT5=
EXTT6=
EXTT7=
EXTT8=
EXTT9=
EXTT10=
EXTT11=
PLAYORDER=
